<svg xmlns="http://www.w3.org/2000/svg" viewBox="0 0 800 600">
  <!-- Background Grid -->
  <defs>
    <pattern id="grid" width="40" height="40" patternUnits="userSpaceOnUse">
      <path d="M 40 0 L 0 0 0 40" fill="none" stroke="rgba(99,102,241,0.1)" stroke-width="1"/>
    </pattern>
  </defs>
  <rect width="100%" height="100%" fill="url(#grid)"/>
  
  <!-- Main Elements -->
  <g transform="translate(100,100)">
    <!-- Database Icon -->
    <rect x="100" y="100" width="120" height="160" rx="10" fill="#4f46e5" opacity="0.9"/>
    <circle cx="160" cy="130" r="15" fill="#fff"/>
    <rect x="130" y="160" width="60" height="10" rx="5" fill="#fff" opacity="0.7"/>
    <rect x="130" y="180" width="60" height="10" rx="5" fill="#fff" opacity="0.7"/>
    
    <!-- Auth Icon -->
    <circle cx="400" cy="180" r="70" fill="#06b6d4" opacity="0.9"/>
    <path d="M380 180 L400 200 L420 160" stroke="#fff" stroke-width="8" fill="none"/>
    
    <!-- Code Window -->
    <rect x="200" y="300" width="200" height="140" rx="10" fill="#3b82f6" opacity="0.9"/>
    <rect x="220" y="330" width="160" height="10" rx="5" fill="#fff" opacity="0.7"/>
    <rect x="220" y="350" width="120" height="10" rx="5" fill="#fff" opacity="0.7"/>
    <rect x="220" y="370" width="140" height="10" rx="5" fill="#fff" opacity="0.7"/>
    
    <!-- Connecting Lines -->
    <path d="M220 180 Q300 180 380 180" stroke="#4f46e5" stroke-width="4" fill="none"/>
    <path d="M300 200 L300 300" stroke="#4f46e5" stroke-width="4" fill="none"/>
  </g>
  
  <!-- Decorative Elements -->
  <circle cx="50" cy="50" r="20" fill="#ec4899" opacity="0.6"/>
  <circle cx="750" cy="550" r="30" fill="#14b8a6" opacity="0.6"/>
  <path d="M700 100 L750 100 L725 50 Z" fill="#f59e0b" opacity="0.6"/>
</svg>
